<svg width="40" height="41" viewBox="0 0 40 41" fill="none" xmlns="http://www.w3.org/2000/svg">
<path d="M0.87868 35.3484C-0.292893 36.52 -0.292893 38.4195 0.87868 39.591C2.05025 40.7626 3.94975 40.7626 5.12132 39.591L0.87868 35.3484ZM40 3.46973C40 1.81287 38.6569 0.469726 37 0.469727L10 0.469725C8.34315 0.469725 7 1.81287 7 3.46973C7 5.12658 8.34315 6.46973 10 6.46973H34V30.4697C34 32.1266 35.3431 33.4697 37 33.4697C38.6569 33.4697 40 32.1266 40 30.4697L40 3.46973ZM5.12132 39.591L39.1213 5.59105L34.8787 1.34841L0.87868 35.3484L5.12132 39.591Z" fill="#00FFEF"/>
</svg>
