<svg width="30" height="33" viewBox="0 0 30 33" fill="none" xmlns="http://www.w3.org/2000/svg">
<path fill-rule="evenodd" clip-rule="evenodd" d="M26.2326 24.0266C26.2326 23.8721 26.2326 23.3573 26.0266 23.2543C25.8207 23.1513 25.4345 22.5077 25.0741 22.1731C24.9067 21.956 24.8001 21.6984 24.7652 21.4265C24.7652 21.2206 24.4048 21.2206 24.2761 21.0661C24.0323 20.7278 23.8088 20.3754 23.6067 20.0106C21.3888 17.4398 19.016 15.0068 16.5015 12.7252C16.3213 12.7252 16.0382 12.7252 15.9352 12.7252C16.0897 11.8499 15.2144 11.8499 14.648 11.2578C13.5153 10.4083 12.64 9.2756 11.636 8.37458C11.636 8.37458 11.2756 8.37458 11.1469 8.37458C10.6063 8.03992 10.3231 7.39633 9.60231 7.42208C9.06606 6.54087 8.22225 5.88968 7.23391 5.59429C7.38837 5.05368 6.89924 5.10517 6.6933 4.92496C6.48735 4.74476 6.43586 4.53881 6.22991 4.41009C5.31511 3.64076 4.36135 2.91899 3.37239 2.24764C3.37239 1.99021 3.37239 1.75852 3.19219 1.70703C2.60009 2.11893 2.05948 2.50508 1.80204 2.14467L0.952508 2.76251C0.952508 2.27339 0.489125 2.55656 0 2.9942C0.334665 3.61205 0.952508 4.12692 0.437639 5.28537C0.437639 5.49132 0.643586 5.28537 0.720816 5.51706C0.585476 6.12856 0.594095 6.76314 0.745993 7.37073C0.897891 7.97832 1.18891 8.54231 1.59609 9.01817C2.47137 9.14689 2.70306 9.8677 3.29516 10.4598C3.96449 10.2024 3.913 10.846 4.11895 11.1291C4.3249 11.4123 4.76254 11.4381 5.01997 11.6697C5.27741 11.9014 5.35464 12.3906 5.92099 12.2618C5.92099 12.545 5.92099 12.4163 6.04971 12.6995C6.20981 12.6557 6.37874 12.6557 6.53884 12.6995C7.43986 13.3431 8.10919 14.4243 9.11318 14.7075C9.11318 14.8877 9.11318 14.9907 9.11318 15.1451C9.11318 15.2996 9.80825 15.66 10.0914 15.8402C10.3746 16.0204 10.2716 16.2521 10.4518 16.4323C10.632 16.6125 11.0954 16.7669 11.3529 16.9729C12.3054 17.8224 13.3608 18.8522 13.9272 19.5472C14.4936 20.2423 15.3431 20.8087 15.9609 21.5037C16.5788 22.1988 17.0422 22.379 17.4798 22.8939C17.9174 23.4088 17.8402 23.5632 18.0719 23.8464C18.3036 24.1296 19.2046 24.3613 19.3076 25.1851C19.4835 25.2211 19.6558 25.2728 19.8225 25.3395C21.2827 26.73 22.6179 28.2461 23.8127 29.8704C23.9414 30.0506 24.0444 29.51 24.0959 29.6902C24.6365 29.9991 24.7395 30.5912 25.1513 30.9516C25.5632 31.312 25.2801 30.7971 25.3573 30.9516C25.4345 31.106 25.6662 31.3635 26.0009 31.3377C26.3355 31.312 26.4643 30.9258 26.5672 31.1318C26.6702 31.3377 26.8762 31.1318 26.9276 31.5179C27.5455 31.1318 27.597 31.5179 27.9059 31.7496C28.2148 31.9813 28.5237 31.7496 28.7554 32.0071C28.9871 32.2645 29.0901 32.6764 29.4505 32.7021C29.8109 32.7279 29.605 32.4447 29.8624 32.2645C30.0207 31.7129 29.956 31.1212 29.6822 30.6169C29.4248 30.3595 29.6822 29.6644 29.0901 29.407C28.498 29.1495 29.399 29.407 29.0901 29.1495C28.7812 28.8921 28.9099 29.1495 28.8327 29.1495C29.2703 28.7119 28.6782 28.1198 28.395 28.2228C28.1118 28.3258 28.395 28.3515 28.395 28.4545C28.395 28.5574 27.8287 27.7594 27.8544 27.3475C28.1118 27.3475 27.8544 27.8366 28.2406 27.7851C28.1368 27.3296 27.9249 26.9058 27.6227 26.5495C27.3395 26.8069 27.8544 26.9614 27.6227 27.3475C27.391 27.0643 27.1851 26.498 27.0306 26.3693C26.8762 26.2405 27.4683 26.1633 27.3138 25.9574C27.1851 24.9534 26.5415 24.7217 26.2326 24.0266ZM27.0821 25.6227C26.7217 25.3395 27.2623 25.8029 27.0821 25.6227V25.6227ZM26.0524 24.2068C26.3355 24.0009 26.0524 24.387 26.1811 24.387C25.9494 24.7217 26.0524 24.2583 26.0524 24.2068ZM26.387 24.7217L26.2068 24.4128C26.2068 24.4128 26.6702 24.5415 26.387 24.7217ZM28.6782 28.2485C28.8841 28.0683 28.8584 28.4287 28.9614 28.4802C29.0644 28.5317 28.7039 28.403 28.601 28.3515L28.6782 28.2485Z" fill="white"/>
<path fill-rule="evenodd" clip-rule="evenodd" d="M21.8565 5.00211C22.7318 5.00211 21.4961 5.28528 21.8565 5.64569C22.2169 6.0061 22.3714 5.33677 22.3714 5.33677L23.2981 4.12683C24.197 2.71983 25.2888 1.44598 26.5418 0.342542C26.7478 0.342542 27.0309 0.548489 27.2369 0.497002C27.4428 0.445515 27.2369 -0.0693535 27.7518 0.00787689C28.9102 0.960384 27.3914 1.32079 28.1637 2.32479C27.7775 2.99412 26.8507 3.66345 27.4171 4.53872C25.5378 6.85563 25.2804 10.0478 22.7575 11.4895C21.8045 13.0836 20.5855 14.5029 19.1534 15.6856C18.5502 16.4333 17.9056 17.1467 17.2227 17.8223C17.094 17.8223 16.8365 17.8223 16.7078 17.8223C15.8724 18.6836 15.09 19.5949 14.3652 20.5511C13.995 21.1305 13.582 21.6812 13.1295 22.1987C12.4344 22.8423 11.6878 23.9493 10.7868 24.9533C10.3749 25.4681 9.65412 25.7256 9.29371 26.2405C9.29371 26.2405 9.29371 26.6523 9.29371 26.7553C9.29371 26.8583 9.03627 26.7553 8.9333 26.9098C8.83033 27.0642 8.9333 27.2444 8.9333 27.3217C8.62682 27.6668 8.30016 27.9934 7.95505 28.2999C7.6532 28.7446 7.30829 29.1585 6.92531 29.5356C6.60639 29.8132 6.24016 30.0312 5.84409 30.1792C5.84409 30.1792 5.40645 30.1792 5.22624 30.1792C5.04604 30.1792 5.07178 30.4109 4.94307 30.4624C4.35097 30.6683 3.37271 30.3079 3.14102 30.9772C2.82534 30.9292 2.5042 30.9292 2.18852 30.9772C1.8963 30.6568 1.71567 30.2504 1.67365 29.8188C1.2875 29.4326 0.849857 29.4326 0.695396 29.098C0.540936 28.7633 1.6479 28.4801 1.82811 27.9653C2.00831 27.4504 1.62216 26.7553 2.11129 26.6266C2.11129 26.3949 1.85385 26.0345 1.8796 25.8286C2.60041 25.4681 2.78062 24.5156 3.39846 23.8721C3.60441 23.6661 4.04204 23.6661 4.24799 23.4344C4.45394 23.2027 4.24799 23.1512 4.24799 23.0998C4.506 22.8003 4.79031 22.5246 5.09753 22.276C5.48368 21.9156 6.30747 21.2462 6.87382 20.7056C7.77485 19.5729 8.36694 18.26 9.65412 17.3332C9.65412 16.5094 10.9155 16.1233 11.276 15.2995C11.6364 14.4757 12.7433 14.1153 13.3869 13.4202C16.09 10.4855 18.8188 7.83389 21.8565 5.00211Z" fill="white"/>
</svg>
