<svg width="44" height="64" viewBox="0 0 44 64" fill="none" xmlns="http://www.w3.org/2000/svg">
<g clip-path="url(#clip0_49_287)">
<path d="M22 5.33301V58.6663M35.3333 13.333H15.3333C12.858 13.333 10.484 14.3163 8.73367 16.0667C6.98333 17.817 6 20.191 6 22.6663C6 25.1417 6.98333 27.5157 8.73367 29.266C10.484 31.0163 12.858 31.9997 15.3333 31.9997H28.6667C31.142 31.9997 33.516 32.983 35.2663 34.7333C37.0167 36.4837 38 38.8577 38 41.333C38 43.8084 37.0167 46.1823 35.2663 47.9327C33.516 49.683 31.142 50.6663 28.6667 50.6663H6" stroke="#FEFEFE" stroke-width="10.6667" stroke-linecap="round" stroke-linejoin="round"/>
</g>
<defs>
<clipPath id="clip0_49_287">
<rect width="44" height="64" fill="white"/>
</clipPath>
</defs>
</svg>
