<svg width="40" height="40" viewBox="0 0 40 40" fill="none" xmlns="http://www.w3.org/2000/svg">
<path d="M24.8718 9.13301C23.5107 9.07165 23.1005 9.05873 19.6515 9.05873C16.2025 9.05873 15.794 9.07165 14.4328 9.13301C10.9288 9.29286 9.29637 10.9528 9.13813 14.4276C9.07516 15.7904 9.06062 16.199 9.06062 19.648C9.06062 23.097 9.07516 23.5055 9.13651 24.8683C9.29637 28.3367 10.9224 30.0031 14.4311 30.163C15.7923 30.2243 16.2025 30.2389 19.6515 30.2389C23.1021 30.2389 23.5107 30.2259 24.8718 30.1646C28.3758 30.0047 30.0066 28.3416 30.1665 24.87C30.2278 23.5071 30.2408 23.0986 30.2408 19.6496C30.2408 16.2006 30.2278 15.7921 30.1665 14.4309C30.0066 10.9544 28.3725 9.29286 24.8718 9.13301ZM19.6515 26.2812C15.9877 26.2812 13.0183 23.3118 13.0183 19.648C13.0183 15.9842 15.9893 13.0148 19.6515 13.0148C23.3137 13.0148 26.2847 15.9842 26.2847 19.648C26.2847 23.3118 23.3153 26.2812 19.6515 26.2812ZM26.5479 14.3033C25.6921 14.3033 24.9978 13.609 24.9978 12.7532C24.9978 11.8974 25.6921 11.2031 26.5479 11.2031C27.4037 11.2031 28.098 11.8974 28.098 12.7532C28.098 13.609 27.4037 14.3033 26.5479 14.3033ZM23.9579 19.648C23.9579 22.0265 22.03 23.9544 19.6515 23.9544C17.273 23.9544 15.3451 22.0265 15.3451 19.648C15.3451 17.2695 17.273 15.3416 19.6515 15.3416C22.03 15.3416 23.9579 17.2695 23.9579 19.648ZM30.9545 0.271484H8.34854C3.89033 0.271484 0.274994 3.88682 0.274994 8.34503V30.9509C0.274994 35.4092 3.89033 39.0245 8.34854 39.0245H30.9545C35.4143 39.0245 39.028 35.4092 39.028 30.9509V8.34503C39.028 3.88682 35.4143 0.271484 30.9545 0.271484ZM32.4917 24.9733C32.2785 29.6705 29.6643 32.2734 24.9784 32.4882C23.5995 32.5511 23.1603 32.5657 19.6515 32.5657C16.1427 32.5657 15.7051 32.5511 14.3262 32.4882C9.63062 32.2734 7.02771 29.6656 6.81133 24.9733C6.74836 23.596 6.73383 23.1567 6.73383 19.648C6.73383 16.1408 6.74836 15.7 6.81133 14.3227C7.02771 9.62711 9.63384 7.02258 14.3262 6.80944C15.7051 6.74485 16.1427 6.73032 19.6515 6.73032C23.1603 6.73032 23.5995 6.74485 24.9784 6.80782C29.674 7.02258 32.2817 9.63518 32.4917 14.3211C32.5546 15.7 32.5692 16.1408 32.5692 19.648C32.5692 23.1567 32.5546 23.596 32.4917 24.9733Z" fill="white"/>
</svg>
