<svg width="40" height="40" viewBox="0 0 40 40" fill="none" xmlns="http://www.w3.org/2000/svg">
<path fill-rule="evenodd" clip-rule="evenodd" d="M31.2837 39.0245H8.67782C4.21961 39.0245 0.604279 35.4092 0.604279 30.9509V8.34503C0.604279 3.88682 4.21961 0.271484 8.67782 0.271484H31.2837C35.7436 0.271484 39.3573 3.88682 39.3573 8.34503V30.9509C39.3573 35.4092 35.7436 39.0245 31.2837 39.0245ZM26.853 30.712C27.2001 30.959 27.6458 31.0204 28.0446 30.8686C28.4419 30.7184 28.7357 30.3777 28.8245 29.9644C29.7595 25.5691 32.0297 14.4406 32.8807 10.4425C32.9437 10.1406 32.8371 9.82733 32.6013 9.62549C32.364 9.42527 32.0346 9.36714 31.7423 9.47532C27.2292 11.1449 13.3282 16.3604 7.64602 18.4644C7.28594 18.5968 7.05181 18.944 7.06311 19.325C7.07603 19.7045 7.33277 20.0355 7.70092 20.1469C10.2489 20.9075 13.5946 21.9683 13.5946 21.9683C13.5946 21.9683 15.156 26.6897 15.9715 29.0892C16.0732 29.3911 16.3105 29.6285 16.6206 29.7092C16.9322 29.79 17.2616 29.706 17.4941 29.4864C18.8037 28.2512 20.8269 26.341 20.8269 26.341C20.8269 26.341 24.6715 29.1602 26.853 30.712ZM15.001 21.3725L16.8079 27.334L17.2099 23.5588C17.2099 23.5588 24.1919 17.2614 28.1738 13.6703C28.2901 13.5654 28.3062 13.3894 28.2093 13.265C28.1125 13.1407 27.9364 13.1116 27.804 13.1956C23.1908 16.1425 15.001 21.3725 15.001 21.3725Z" fill="white"/>
</svg>
