<svg width="16" height="16" viewBox="0 0 16 16" fill="none" xmlns="http://www.w3.org/2000/svg">
<path d="M8.2381 8.12195C9.95238 8.12195 10.1429 6.41463 10.1429 5.43902C10.1429 4.61225 9.95238 3 8.2381 3C6.52381 3 6.09524 4.62602 6.09524 5.43902C6.09524 6.33333 6.52381 8.12195 8.2381 8.12195ZM8.2381 8.12195L11.8095 9.58537C12.7619 10.0732 13 10.7073 13 11.2927C13 12.0244 12.5238 13 11.5714 13C10.8095 13 6.65079 13 4.42857 13C3.47619 13 3 12.0732 3 11.2927C3 10.5122 3.47619 10.0732 4.19048 9.58537C4.90476 9.09756 5.61905 8.60976 5.61905 8.60976" stroke="#00FFEF" stroke-linecap="round"/>
</svg>
