<svg width="12" height="12" viewBox="0 0 12 12" fill="none" xmlns="http://www.w3.org/2000/svg">
<path d="M6.2381 6.12195C7.95238 6.12195 8.14286 4.41463 8.14286 3.43902C8.14286 2.61225 7.95238 1 6.2381 1C4.52381 1 4.09524 2.62602 4.09524 3.43902C4.09524 4.33333 4.52381 6.12195 6.2381 6.12195ZM6.2381 6.12195L9.80952 7.58537C10.7619 8.07317 11 8.70732 11 9.29268C11 10.0244 10.5238 11 9.57143 11C8.80952 11 4.65079 11 2.42857 11C1.47619 11 1 10.0732 1 9.29268C1 8.51219 1.47619 8.07317 2.19048 7.58537C2.90476 7.09756 3.61905 6.60976 3.61905 6.60976" stroke="#00FFEF" stroke-linecap="round"/>
</svg>
