<svg width="40" height="40" viewBox="0 0 40 40" fill="none" xmlns="http://www.w3.org/2000/svg">
<path d="M19.8743 8.89241C14.0048 8.89241 9.23172 13.6655 9.22849 19.5317C9.22688 21.9263 9.92928 23.7203 11.108 25.5966L10.0326 29.5235L14.0597 28.4675C15.8633 29.5381 17.5862 30.1807 19.8646 30.1807C25.7292 30.1807 30.5071 25.4077 30.5087 19.5398C30.5136 13.6606 25.7583 8.89403 19.8743 8.89241ZM26.1329 24.1078C25.8665 24.8554 24.5876 25.5368 23.974 25.6289C23.4234 25.7112 22.7258 25.7451 21.9589 25.5029C21.4938 25.356 20.898 25.159 20.1359 24.8296C16.9274 23.4442 14.8315 20.2131 14.6717 20C14.5118 19.7869 13.3654 18.2658 13.3654 16.6915C13.3654 15.1171 14.1921 14.3437 14.4844 14.0223C14.7782 13.6994 15.1238 13.6187 15.3369 13.6187L15.9505 13.63C16.1475 13.6397 16.4107 13.5557 16.6707 14.179C16.9371 14.82 17.5765 16.3943 17.6573 16.5542C17.7364 16.7141 17.7913 16.9014 17.6831 17.1145C17.5765 17.3277 17.5233 17.4617 17.3634 17.6474L16.8838 18.2077C16.724 18.3675 16.5577 18.5403 16.7433 18.86C16.9307 19.1797 17.5717 20.2277 18.5228 21.0754C19.7451 22.1653 20.7753 22.5028 21.095 22.6626C21.4147 22.8225 21.602 22.7967 21.7877 22.5819C21.975 22.3688 22.587 21.6486 22.8001 21.3273C23.0133 21.006 23.2264 21.0609 23.5203 21.1674C23.8142 21.274 25.3869 22.0474 25.7066 22.2089C26.0263 22.3688 26.2394 22.4495 26.3202 22.5819C26.3993 22.7192 26.3993 23.3602 26.1329 24.1078ZM31.1191 0.271484H8.51318C4.05497 0.271484 0.439636 3.88682 0.439636 8.34503V30.9509C0.439636 35.4092 4.05497 39.0245 8.51318 39.0245H31.1191C35.5789 39.0245 39.1926 35.4092 39.1926 30.9509V8.34503C39.1926 3.88682 35.5789 0.271484 31.1191 0.271484ZM19.8694 32.3428C17.7267 32.3428 15.6163 31.8051 13.7464 30.7846L6.95983 32.5657L8.77638 25.9324C7.65577 23.9916 7.0664 21.7891 7.06801 19.5317C7.07124 12.4722 12.8131 6.73032 19.8694 6.73032C23.2942 6.73193 26.5091 8.06568 28.9263 10.4845C31.3435 12.9033 32.6741 16.1215 32.6724 19.5414C32.6692 26.6009 26.9257 32.3428 19.8694 32.3428Z" fill="white"/>
</svg>
