<svg width="39" height="39" viewBox="0 0 39 39" fill="none" xmlns="http://www.w3.org/2000/svg">
<g clip-path="url(#clip0_340_268)">
<path d="M38.3091 8.71418C38.3091 8.71418 37.9236 4.85946 36.7672 3.20744C35.3538 1.00474 33.6834 1.00474 32.9125 0.821183C27.5159 0.270508 19.4209 0.270508 19.4209 0.270508C19.4209 0.270508 11.326 0.270508 5.92942 0.821183C5.15848 1.00474 3.4881 1.00474 2.0747 3.20744C0.918283 4.85946 0.532811 8.71418 0.532811 8.71418C0.532811 8.71418 0.147339 13.1196 0.147339 17.525V21.5633C0.147339 25.9686 0.532811 30.5576 0.532811 30.5576C0.532811 30.5576 0.918283 34.4123 2.0747 36.0643C3.4881 38.267 5.41546 38.267 6.31489 38.4506C9.39867 38.6342 19.4209 38.8177 19.4209 38.8177C19.4209 38.8177 27.5159 38.8177 32.9125 38.267C33.6834 38.0835 35.3538 38.0835 36.7672 35.8808C37.9236 34.2288 38.3091 30.374 38.3091 30.374C38.3091 30.374 38.6945 25.9686 38.6945 21.5633V17.525C38.6945 13.1196 38.3091 8.71418 38.3091 8.71418ZM15.4377 26.7029V11.284L25.8455 18.9934L15.4377 26.7029Z" fill="white"/>
</g>
<defs>
<clipPath id="clip0_340_268">
<rect width="38.5472" height="38.5472" fill="white" transform="translate(0.147339 0.270508)"/>
</clipPath>
</defs>
</svg>
