<svg width="18" height="19" viewBox="0 0 18 19" fill="none" xmlns="http://www.w3.org/2000/svg">
<path d="M7.11111 1.5H2C1.44772 1.5 1 1.94772 1 2.5V7.61111C1 8.16339 1.44772 8.61111 2 8.61111H7.11111C7.66339 8.61111 8.11111 8.16339 8.11111 7.61111V2.5C8.11111 1.94772 7.66339 1.5 7.11111 1.5Z" fill="#00AD9B"/>
<path d="M15.9998 1.5H10.8887C10.3364 1.5 9.88867 1.94772 9.88867 2.5V7.61111C9.88867 8.16339 10.3364 8.61111 10.8887 8.61111H15.9998C16.5521 8.61111 16.9998 8.16339 16.9998 7.61111V2.5C16.9998 1.94772 16.5521 1.5 15.9998 1.5Z" fill="#00AD9B"/>
<path d="M15.9998 10.3887H10.8887C10.3364 10.3887 9.88867 10.8364 9.88867 11.3887V16.4998C9.88867 17.0521 10.3364 17.4998 10.8887 17.4998H15.9998C16.5521 17.4998 16.9998 17.0521 16.9998 16.4998V11.3887C16.9998 10.8364 16.5521 10.3887 15.9998 10.3887Z" fill="#00AD9B"/>
<path d="M7.11111 10.3887H2C1.44772 10.3887 1 10.8364 1 11.3887V16.4998C1 17.0521 1.44772 17.4998 2 17.4998H7.11111C7.66339 17.4998 8.11111 17.0521 8.11111 16.4998V11.3887C8.11111 10.8364 7.66339 10.3887 7.11111 10.3887Z" fill="#00AD9B"/>
</svg>
