<svg width="21" height="21" viewBox="0 0 21 21" fill="none" xmlns="http://www.w3.org/2000/svg">
<rect width="21" height="21" rx="5" fill="#FF0000"/>
<path d="M15.6827 5.52261H13.4042V4.82266C13.4042 3.87888 12.6663 3.11108 11.7589 3.11108H9.24182C8.3348 3.11108 7.59651 3.87888 7.59651 4.82266V5.52261H5.31793C4.95804 5.52261 4.66699 5.82525 4.66699 6.20015C4.66699 6.57504 4.95804 6.87747 5.31793 6.87747H5.66518V14.8802C5.66518 16.113 6.62457 17.1111 7.80493 17.1111H13.1957C14.3762 17.1111 15.3355 16.113 15.3355 14.8802V6.87747H15.6827C16.043 6.87747 16.3337 6.57504 16.3337 6.20015C16.3337 5.82525 16.043 5.52251 15.6827 5.52251L15.6827 5.52261ZM8.89892 4.82266C8.89892 4.62405 9.05077 4.46594 9.24192 4.46594H11.759C11.9504 4.46594 12.1023 4.62394 12.1023 4.82266V5.52261H8.8989L8.89892 4.82266ZM9.53259 13.8325C9.53259 14.2074 9.24194 14.51 8.88165 14.51C8.52135 14.51 8.2303 14.2074 8.2303 13.8325V8.80138C8.2303 8.4267 8.52135 8.12406 8.88165 8.12406C9.24194 8.12406 9.53259 8.4267 9.53259 8.80138V13.8325ZM12.7704 13.8325C12.7704 14.2074 12.4793 14.51 12.119 14.51C11.7587 14.51 11.4683 14.2074 11.4683 13.8325L11.4684 8.80138C11.4684 8.4267 11.7588 8.12406 12.1191 8.12406C12.4794 8.12406 12.7704 8.4267 12.7704 8.80138L12.7704 13.8325Z" fill="white"/>
</svg>
