<svg width="15" height="18" viewBox="0 0 15 18" fill="none" xmlns="http://www.w3.org/2000/svg">
<path d="M14.1631 3.10053H11.2335V2.20059C11.2335 0.987169 10.2848 0 9.11812 0H5.88192C4.71576 0 3.76652 0.987169 3.76652 2.20059V3.10053H0.836925C0.374207 3.10053 0 3.48964 0 3.97165C0 4.45366 0.374207 4.84249 0.836925 4.84249H1.28338V15.1317C1.28338 16.7168 2.51689 18 4.03449 18H10.9655C12.4833 18 13.7166 16.7168 13.7166 15.1317V4.84249H14.1631C14.6263 4.84249 15 4.45366 15 3.97165C15 3.48964 14.6263 3.1004 14.1631 3.1004L14.1631 3.10053ZM5.44105 2.20059C5.44105 1.94524 5.63628 1.74196 5.88205 1.74196H9.11825C9.36441 1.74196 9.55963 1.9451 9.55963 2.20059V3.10053H5.44102L5.44105 2.20059ZM6.25577 13.7847C6.25577 14.2667 5.88208 14.6558 5.41884 14.6558C4.9556 14.6558 4.5814 14.2667 4.5814 13.7847V7.3161C4.5814 6.83436 4.9556 6.44526 5.41884 6.44526C5.88208 6.44526 6.25577 6.83436 6.25577 7.3161V13.7847ZM10.4186 13.7847C10.4186 14.2667 10.0444 14.6558 9.58116 14.6558C9.11792 14.6558 8.74459 14.2667 8.74459 13.7847L8.74472 7.3161C8.74472 6.83436 9.11802 6.44526 9.58129 6.44526C10.0445 6.44526 10.4187 6.83436 10.4187 7.3161L10.4186 13.7847Z" fill="#D2AB67"/>
</svg>
