<svg width="15" height="19" viewBox="0 0 15 19" fill="none" xmlns="http://www.w3.org/2000/svg">
<g clip-path="url(#clip0_262_291)">
<path d="M14.1631 3.60053H11.2335V2.70059C11.2335 1.48717 10.2848 0.5 9.11812 0.5H5.88192C4.71576 0.5 3.76652 1.48717 3.76652 2.70059V3.60053H0.836925C0.374207 3.60053 0 3.98964 0 4.47165C0 4.95366 0.374207 5.34249 0.836925 5.34249H1.28338V15.6317C1.28338 17.2168 2.51689 18.5 4.03449 18.5H10.9655C12.4833 18.5 13.7166 17.2168 13.7166 15.6317V5.34249H14.1631C14.6263 5.34249 15 4.95366 15 4.47165C15 3.98964 14.6263 3.60053 14.1631 3.60053ZM5.44105 2.70059C5.44105 2.44524 5.63628 2.24196 5.88205 2.24196H9.11825C9.36441 2.24196 9.55963 2.4451 9.55963 2.70059V3.60053H5.44102L5.44105 2.70059ZM6.25577 14.2847C6.25577 14.7667 5.88208 15.1558 5.41884 15.1558C4.9556 15.1558 4.5814 14.7667 4.5814 14.2847V7.8161C4.5814 7.33436 4.9556 6.94526 5.41884 6.94526C5.88208 6.94526 6.25577 7.33436 6.25577 7.8161V14.2847ZM10.4186 14.2847C10.4186 14.7667 10.0444 15.1558 9.58116 15.1558C9.11792 15.1558 8.74459 14.7667 8.74459 14.2847L8.74472 7.8161C8.74472 7.33436 9.11802 6.94526 9.58129 6.94526C10.0445 6.94526 10.4187 7.33436 10.4187 7.8161L10.4186 14.2847Z" fill="#00AD9B"/>
</g>
<defs>
<clipPath id="clip0_262_291">
<rect width="15" height="18" fill="white" transform="translate(0 0.5)"/>
</clipPath>
</defs>
</svg>
