<svg width="18" height="18" viewBox="0 0 18 18" fill="none" xmlns="http://www.w3.org/2000/svg">
<path d="M16.9379 7.06962L15.7341 6.9414C15.4663 6.9122 15.2323 6.73218 15.1198 6.45989C15.0096 6.19669 15.0478 5.90413 15.2188 5.69255L15.9771 4.75212C16.3617 4.27954 16.3258 3.5979 15.8939 3.16585L14.8342 2.10613C14.4021 1.67642 13.7204 1.6403 13.2479 2.02295L12.3075 2.78117C12.0959 2.95224 11.8035 2.99038 11.529 2.87565C11.268 2.76767 11.0879 2.53366 11.0588 2.2659L10.9305 1.06209C10.8676 0.456916 10.3591 0 9.74936 0H8.25081C7.64105 0 7.13254 0.456715 7.06962 1.06209L6.94139 2.2659C6.9122 2.53365 6.73218 2.76765 6.45989 2.88019C6.19669 2.99037 5.90413 2.95223 5.69255 2.78116L4.75212 2.02294C4.27954 1.63826 3.5979 1.6742 3.16585 2.10612L2.10613 3.16585C1.67405 3.59793 1.63813 4.27957 2.02295 4.75211L2.78117 5.69254C2.95224 5.90411 2.99038 6.19651 2.87565 6.47101C2.76767 6.73202 2.53366 6.91206 2.2659 6.94123L1.06209 7.06945C0.456915 7.13239 0 7.64092 0 8.25064V9.74919C0 10.359 0.456714 10.8675 1.06209 10.9304L2.2659 11.0586C2.53365 11.0878 2.76765 11.2678 2.88019 11.5401C2.99037 11.8033 2.95223 12.0959 2.78116 12.3074L2.02294 13.2479C1.63826 13.7205 1.6742 14.4021 2.10612 14.8341L3.16585 15.8939C3.59793 16.326 4.27957 16.3619 4.75211 15.9771L5.69254 15.2188C5.90411 15.0478 6.19651 15.0096 6.47101 15.1243C6.73202 15.2323 6.91206 15.4663 6.94123 15.7341L7.06945 16.9379C7.13239 17.5431 7.64092 18 8.25064 18H9.74919C10.3589 18 10.8675 17.5433 10.9304 16.9379L11.0586 15.7341C11.0878 15.4663 11.2678 15.2323 11.5401 15.1198C11.8011 15.0096 12.0959 15.0478 12.3074 15.2188L13.2479 15.9771C13.7205 16.3617 14.4021 16.3258 14.8341 15.8939L15.8939 14.8342C16.326 14.4021 16.3619 13.7204 15.977 13.2479L15.2188 12.3075C15.0478 12.0959 15.0096 11.8035 15.1243 11.529C15.2323 11.268 15.4663 11.0879 15.7341 11.0588L16.9379 10.9305C17.5431 10.8676 18 10.3591 18 9.74936V8.25081C18 7.64105 17.5433 7.13254 16.9379 7.06962ZM8.99974 12.7128C6.95218 12.7128 5.28728 11.0477 5.28728 9.00031C5.28728 6.95274 6.95234 5.28784 8.99974 5.28784C11.0473 5.28784 12.7122 6.9529 12.7122 9.00031C12.7122 11.0479 11.0471 12.7128 8.99974 12.7128Z" fill="#D2AB67"/>
</svg>
