<svg width="18" height="19" viewBox="0 0 18 19" fill="none" xmlns="http://www.w3.org/2000/svg">
<g clip-path="url(#clip0_262_296)">
<path d="M16.9379 7.56962L15.7341 7.4414C15.4663 7.4122 15.2323 7.23218 15.1198 6.95989C15.0096 6.69669 15.0478 6.40413 15.2188 6.19255L15.9771 5.25212C16.3617 4.77954 16.3258 4.0979 15.8939 3.66585L14.8342 2.60613C14.4021 2.17642 13.7204 2.1403 13.2479 2.52295L12.3075 3.28117C12.0959 3.45224 11.8035 3.49038 11.529 3.37565C11.268 3.26767 11.0879 3.03366 11.0588 2.7659L10.9305 1.56209C10.8676 0.956916 10.3591 0.5 9.74936 0.5H8.25081C7.64105 0.5 7.13254 0.956715 7.06962 1.56209L6.94139 2.7659C6.9122 3.03365 6.73218 3.26765 6.45989 3.38019C6.19669 3.49037 5.90413 3.45223 5.69255 3.28116L4.75212 2.52294C4.27954 2.13826 3.5979 2.1742 3.16585 2.60612L2.10613 3.66585C1.67405 4.09793 1.63813 4.77957 2.02295 5.25211L2.78117 6.19254C2.95224 6.40411 2.99038 6.69651 2.87565 6.97101C2.76767 7.23202 2.53366 7.41206 2.2659 7.44123L1.06209 7.56945C0.456915 7.63239 0 8.14092 0 8.75064V10.2492C0 10.859 0.456714 11.3675 1.06209 11.4304L2.2659 11.5586C2.53365 11.5878 2.76765 11.7678 2.88019 12.0401C2.99037 12.3033 2.95223 12.5959 2.78116 12.8074L2.02294 13.7479C1.63826 14.2205 1.6742 14.9021 2.10612 15.3341L3.16585 16.3939C3.59793 16.826 4.27957 16.8619 4.75211 16.4771L5.69254 15.7188C5.90411 15.5478 6.19651 15.5096 6.47101 15.6243C6.73202 15.7323 6.91206 15.9663 6.94123 16.2341L7.06945 17.4379C7.13239 18.0431 7.64092 18.5 8.25064 18.5H9.74919C10.3589 18.5 10.8675 18.0433 10.9304 17.4379L11.0586 16.2341C11.0878 15.9663 11.2678 15.7323 11.5401 15.6198C11.8011 15.5096 12.0959 15.5478 12.3074 15.7188L13.2479 16.4771C13.7205 16.8617 14.4021 16.8258 14.8341 16.3939L15.8939 15.3342C16.326 14.9021 16.3619 14.2204 15.977 13.7479L15.2188 12.8075C15.0478 12.5959 15.0096 12.3035 15.1243 12.029C15.2323 11.768 15.4663 11.5879 15.7341 11.5588L16.9379 11.4305C17.5431 11.3676 18 10.8591 18 10.2494V8.75081C18 8.14105 17.5433 7.63254 16.9379 7.56962ZM8.99974 13.2128C6.95218 13.2128 5.28728 11.5477 5.28728 9.50031C5.28728 7.45274 6.95234 5.78784 8.99974 5.78784C11.0473 5.78784 12.7122 7.4529 12.7122 9.50031C12.7122 11.5479 11.0471 13.2128 8.99974 13.2128Z" fill="#00AD9B"/>
</g>
<defs>
<clipPath id="clip0_262_296">
<rect width="18" height="18" fill="white" transform="translate(0 0.5)"/>
</clipPath>
</defs>
</svg>
