<svg width="24" height="25" viewBox="0 0 24 25" fill="none" xmlns="http://www.w3.org/2000/svg">
<path d="M11.998 5.5C7.92 5.5 4.256 8.593 2.145 11.983C2.049 12.142 2 12.321 2 12.5C2 12.679 2.048 12.858 2.144 13.017C4.256 16.407 7.92 19.5 11.998 19.5C16.141 19.5 19.794 16.41 21.862 13.007C21.954 12.851 22 12.675 22 12.5C22 12.325 21.954 12.149 21.862 11.993C19.794 8.59 16.141 5.5 11.998 5.5ZM12 8.5C14.208 8.5 16 10.292 16 12.5C16 14.708 14.208 16.5 12 16.5C9.792 16.5 8 14.708 8 12.5C8 10.292 9.792 8.5 12 8.5ZM12 10C13.38 10 14.5 11.12 14.5 12.5C14.5 13.88 13.38 15 12 15C10.62 15 9.5 13.88 9.5 12.5C9.5 11.12 10.62 10 12 10Z" fill="#00AD9B"/>
</svg>
